HIERARCHY
ROOT Root
{
  OFFSET 0.0 0.0 0.0
  CHANNELS 6 Xposition Yposition Zposition Zrotation Yrotation Xrotation
  JOINT Hips
  {
    OFFSET 0.0 100.0 0.0
    CHANNELS 6 Xposition Yposition Zposition Zrotation Yrotation Xrotation
    JOINT Spine1
    {
      OFFSET 5.003913 -0.037094 -0.013727
      CHANNELS 3 Zrotation Yrotation Xrotation
      JOINT Spine2
      {
        OFFSET 7.125363 -1e-06 0.0
        CHANNELS 3 Zrotation Yrotation Xrotation
        JOINT Chest
        {
          OFFSET 7.594027 1e-06 0.0
          CHANNELS 3 Zrotation Yrotation Xrotation
          JOINT Neck1
          {
            OFFSET 26.313086 -0.460272 -0.181672
            CHANNELS 3 Zrotation Yrotation Xrotation
            JOINT Neck2
            {
              OFFSET 8.045911 0.0 0.0
              CHANNELS 3 Zrotation Yrotation Xrotation
              JOINT Head
              {
                OFFSET 6.432774 0.0 0.0
                CHANNELS 3 Zrotation Yrotation Xrotation
                JOINT HeadEnd
                {
                  OFFSET 16.169773 0.06451 0.00362
                  CHANNELS 3 Zrotation Yrotation Xrotation
                }
                JOINT Jaw
                {
                  OFFSET 0.108741 3.12938 0.002639
                  CHANNELS 3 Zrotation Yrotation Xrotation
                }
                JOINT LeftEye
                {
                  OFFSET 4.45173 8.166359 3.206392
                  CHANNELS 3 Zrotation Yrotation Xrotation
                }
                JOINT RightEye
                {
                  OFFSET 4.436895 8.135758 -3.222429
                  CHANNELS 3 Zrotation Yrotation Xrotation
                }
              }
            }
          }
          JOINT LeftShoulder
          {
            OFFSET 23.218927 5.195579 1.621656
            CHANNELS 3 Zrotation Yrotation Xrotation
            JOINT LeftArm
            {
              OFFSET 15.902118 2e-06 -2e-06
              CHANNELS 3 Zrotation Yrotation Xrotation
              JOINT LeftForeArm
              {
                OFFSET 28.739307 0.0 -1e-06
                CHANNELS 3 Zrotation Yrotation Xrotation
                JOINT LeftHand
                {
                  OFFSET 27.093981 -4e-06 0.0
                  CHANNELS 3 Zrotation Yrotation Xrotation
                  JOINT LeftHandThumb1
                  {
                    OFFSET 2.276781 3.380274 0.83384
                    CHANNELS 3 Zrotation Yrotation Xrotation
                    JOINT LeftHandThumb2
                    {
                      OFFSET 4.705309 -1e-06 -1e-06
                      CHANNELS 3 Zrotation Yrotation Xrotation
                      JOINT LeftHandThumb3
                      {
                        OFFSET 2.798515 0.0 3e-06
                        CHANNELS 3 Zrotation Yrotation Xrotation
                        JOINT LeftHandThumbEnd
                        {
                          OFFSET 3.180793 4e-06 -4e-06
                          CHANNELS 3 Zrotation Yrotation Xrotation
                        }
                      }
                    }
                  }
                  JOINT LeftHandIndex1
                  {
                    OFFSET 3.247786 2.352677 0.137192
                    CHANNELS 3 Zrotation Yrotation Xrotation
                    JOINT LeftHandIndex2
                    {
                      OFFSET 6.367095 1e-06 0.0
                      CHANNELS 3 Zrotation Yrotation Xrotation
                      JOINT LeftHandIndex3
                      {
                        OFFSET 3.662364 0.0 0.0
                        CHANNELS 3 Zrotation Yrotation Xrotation
                        JOINT LeftHandIndex4
                        {
                          OFFSET 2.329242 4e-06 -4e-06
                          CHANNELS 3 Zrotation Yrotation Xrotation
                          JOINT LeftHandIndexEnd
                          {
                            OFFSET 2.767823 1e-06 0.0
                            CHANNELS 3 Zrotation Yrotation Xrotation
                          }
                        }
                      }
                    }
                  }
                  JOINT LeftHandMiddle1
                  {
                    OFFSET 3.163612 0.945023 -0.406112
                    CHANNELS 3 Zrotation Yrotation Xrotation
                    JOINT LeftHandMiddle2
                    {
                      OFFSET 6.276789 3e-06 0.0
                      CHANNELS 3 Zrotation Yrotation Xrotation
                      JOINT LeftHandMiddle3
                      {
                        OFFSET 4.35652 -1e-06 4e-06
                        CHANNELS 3 Zrotation Yrotation Xrotation
                        JOINT LeftHandMiddle4
                        {
                          OFFSET 2.996877 0.0 8e-06
                          CHANNELS 3 Zrotation Yrotation Xrotation
                          JOINT LeftHandMiddleEnd
                          {
                            OFFSET 2.323256 3e-06 -4e-06
                            CHANNELS 3 Zrotation Yrotation Xrotation
                          }
                        }
                      }
                    }
                  }
                  JOINT LeftHandRing1
                  {
                    OFFSET 2.882606 -0.309162 0.107445
                    CHANNELS 3 Zrotation Yrotation Xrotation
                    JOINT LeftHandRing2
                    {
                      OFFSET 6.033198 0.0 4e-06
                      CHANNELS 3 Zrotation Yrotation Xrotation
                      JOINT LeftHandRing3
                      {
                        OFFSET 4.350578 3e-06 0.0
                        CHANNELS 3 Zrotation Yrotation Xrotation
                        JOINT LeftHandRing4
                        {
                          OFFSET 2.651321 2e-06 -7e-06
                          CHANNELS 3 Zrotation Yrotation Xrotation
                          JOINT LeftHandRingEnd
                          {
                            OFFSET 1.937663 1e-06 -4e-06
                            CHANNELS 3 Zrotation Yrotation Xrotation
                          }
                        }
                      }
                    }
                  }
                  JOINT LeftHandPinky1
                  {
                    OFFSET 2.865315 -1.525436 0.575687
                    CHANNELS 3 Zrotation Yrotation Xrotation
                    JOINT LeftHandPinky2
                    {
                      OFFSET 5.54936 1e-06 -8e-06
                      CHANNELS 3 Zrotation Yrotation Xrotation
                      JOINT LeftHandPinky3
                      {
                        OFFSET 3.070974 0.0 -4e-06
                        CHANNELS 3 Zrotation Yrotation Xrotation
                        JOINT LeftHandPinky4
                        {
                          OFFSET 1.549672 1e-06 0.0
                          CHANNELS 3 Zrotation Yrotation Xrotation
                          JOINT LeftHandPinkyEnd
                          {
                            OFFSET 1.952123 0.0 0.0
                            CHANNELS 3 Zrotation Yrotation Xrotation
                          }
                        }
                      }
                    }
                  }
                }
              }
            }
          }
          JOINT RightShoulder
          {
            OFFSET 23.161716 5.296122 -1.380114
            CHANNELS 3 Zrotation Yrotation Xrotation
            JOINT RightArm
            {
              OFFSET -16.027195 -2e-06 1.1e-05
              CHANNELS 3 Zrotation Yrotation Xrotation
              JOINT RightForeArm
              {
                OFFSET -28.736639 4e-06 2e-06
                CHANNELS 3 Zrotation Yrotation Xrotation
                JOINT RightHand
                {
                  OFFSET -27.133619 6e-06 0.0
                  CHANNELS 3 Zrotation Yrotation Xrotation
                  JOINT RightHandThumb1
                  {
                    OFFSET -2.274328 -3.351035 -0.83067
                    CHANNELS 3 Zrotation Yrotation Xrotation
                    JOINT RightHandThumb2
                    {
                      OFFSET -4.703594 -3e-06 2e-06
                      CHANNELS 3 Zrotation Yrotation Xrotation
                      JOINT RightHandThumb3
                      {
                        OFFSET -2.794935 -4e-06 -3e-06
                        CHANNELS 3 Zrotation Yrotation Xrotation
                        JOINT RightHandThumbEnd
                        {
                          OFFSET -3.183852 4e-06 1e-06
                          CHANNELS 3 Zrotation Yrotation Xrotation
                        }
                      }
                    }
                  }
                  JOINT RightHandIndex1
                  {
                    OFFSET -3.253496 -2.33755 -0.127667
                    CHANNELS 3 Zrotation Yrotation Xrotation
                    JOINT RightHandIndex2
                    {
                      OFFSET -6.344434 0.0 0.0
                      CHANNELS 3 Zrotation Yrotation Xrotation
                      JOINT RightHandIndex3
                      {
                        OFFSET -3.654871 0.0 -8e-06
                        CHANNELS 3 Zrotation Yrotation Xrotation
                        JOINT RightHandIndex4
                        {
                          OFFSET -2.327586 -1e-06 0.0
                          CHANNELS 3 Zrotation Yrotation Xrotation
                          JOINT RightHandIndexEnd
                          {
                            OFFSET -2.770001 3e-06 8e-06
                            CHANNELS 3 Zrotation Yrotation Xrotation
                          }
                        }
                      }
                    }
                  }
                  JOINT RightHandMiddle1
                  {
                    OFFSET -3.168223 -0.944764 0.411762
                    CHANNELS 3 Zrotation Yrotation Xrotation
                    JOINT RightHandMiddle2
                    {
                      OFFSET -6.266691 -1e-06 -4e-06
                      CHANNELS 3 Zrotation Yrotation Xrotation
                      JOINT RightHandMiddle3
                      {
                        OFFSET -4.348901 0.0 0.0
                        CHANNELS 3 Zrotation Yrotation Xrotation
                        JOINT RightHandMiddle4
                        {
                          OFFSET -3.00024 2e-06 -4e-06
                          CHANNELS 3 Zrotation Yrotation Xrotation
                          JOINT RightHandMiddleEnd
                          {
                            OFFSET -2.321477 -4e-06 -4e-06
                            CHANNELS 3 Zrotation Yrotation Xrotation
                          }
                        }
                      }
                    }
                  }
                  JOINT RightHandRing1
                  {
                    OFFSET -2.885654 0.293261 -0.119232
                    CHANNELS 3 Zrotation Yrotation Xrotation
                    JOINT RightHandRing2
                    {
                      OFFSET -6.032835 -1e-06 -4e-06
                      CHANNELS 3 Zrotation Yrotation Xrotation
                      JOINT RightHandRing3
                      {
                        OFFSET -4.33881 0.0 -4e-06
                        CHANNELS 3 Zrotation Yrotation Xrotation
                        JOINT RightHandRing4
                        {
                          OFFSET -2.654903 -4e-06 -4e-06
                          CHANNELS 3 Zrotation Yrotation Xrotation
                          JOINT RightHandRingEnd
                          {
                            OFFSET -1.935122 0.0 4e-06
                            CHANNELS 3 Zrotation Yrotation Xrotation
                          }
                        }
                      }
                    }
                  }
                  JOINT RightHandPinky1
                  {
                    OFFSET -2.866241 1.503904 -0.60527
                    CHANNELS 3 Zrotation Yrotation Xrotation
                    JOINT RightHandPinky2
                    {
                      OFFSET -5.553177 -2e-06 0.0
                      CHANNELS 3 Zrotation Yrotation Xrotation
                      JOINT RightHandPinky3
                      {
                        OFFSET -3.062664 -1e-06 -4e-06
                        CHANNELS 3 Zrotation Yrotation Xrotation
                        JOINT RightHandPinky4
                        {
                          OFFSET -1.546529 2e-06 4e-06
                          CHANNELS 3 Zrotation Yrotation Xrotation
                          JOINT RightHandPinkyEnd
                          {
                            OFFSET -1.952341 0.0 -4e-06
                            CHANNELS 3 Zrotation Yrotation Xrotation
                          }
                        }
                      }
                    }
                  }
                }
              }
            }
          }
        }
      }
    }
    JOINT LeftLeg
    {
      OFFSET -8.443107 2.567604 10.043214
      CHANNELS 3 Zrotation Yrotation Xrotation
      JOINT LeftShin
      {
        OFFSET 43.229198 1e-06 -1e-06
        CHANNELS 3 Zrotation Yrotation Xrotation
        JOINT LeftFoot
        {
          OFFSET 42.298611 1e-06 1e-06
          CHANNELS 3 Zrotation Yrotation Xrotation
          JOINT LeftToeBase
          {
            OFFSET 14.165858 1e-06 0.0
            CHANNELS 3 Zrotation Yrotation Xrotation
            JOINT LeftToeEnd
            {
              OFFSET 6.7141 -0.234461 0.0
              CHANNELS 3 Zrotation Yrotation Xrotation
            }
          }
        }
      }
    }
    JOINT RightLeg
    {
      OFFSET -8.303923 2.592729 -10.047278
      CHANNELS 3 Zrotation Yrotation Xrotation
      JOINT RightShin
      {
        OFFSET -43.369682 0.0 1e-06
        CHANNELS 3 Zrotation Yrotation Xrotation
        JOINT RightFoot
        {
          OFFSET -42.260784 4e-06 2e-06
          CHANNELS 3 Zrotation Yrotation Xrotation
          JOINT RightToeBase
          {
            OFFSET -14.222245 -2e-06 -1e-06
            CHANNELS 3 Zrotation Yrotation Xrotation
            JOINT RightToeEnd
            {
              OFFSET -6.660062 0.232574 -2e-06
              CHANNELS 3 Zrotation Yrotation Xrotation
            }
          }
        }
      }
    }
  }
}
MOTION
Frames: 5
Frame Time: 0.03333333333333333
0.0 0.0 0.0 0.0 -0.0 0.0 5.250785 98.518272 -3.779366 94.031662 0.415808 90.518791 3.402226 -2.674714 -0.453435 -10.687146 -1.158947 -1.582156 23.733419 -0.921463 -3.496954 35.114223 5.244661 2.888433 -2.358221 -1.094191 -0.858254 -24.842482 -1.349276 -0.664919 5e-06 -0.0 0.0 -0.049255 0.023777 -0.066833 -0.102535 0.098987 -0.075362 -0.120224 -0.050362 -0.053976 -61.948669 -78.525978 84.604362 18.947495 -40.936417 25.332363 55.517948 -1.314789 0.299818 1.040452 9.467909 -13.79329 17.636639 -26.322737 52.411201 -19.466663 -14.395597 29.410393 -1e-06 -8.774822 -3e-06 16.561031 -18.616089 6.025382 -0.609775 -1.795654 -3.889324 -4.807087 -11.046813 -2.937852 6e-06 -20.976021 0.0 -5.019969 -25.03356 -4.03188 6e-06 -0.0 -0.0 -10.634535 -5.68697 -3.565588 10.573276 -17.922955 -3.113899 4e-06 -13.82121 0.0 -0.501777 -31.181505 -4.027012 -12.216557 -60.25806 7.487702 -13.982714 -7.150196 -2.875041 13.772731 -8.401493 -3.21824 0.347736 -34.211555 0.771653 -0.96303 -17.733372 2.621023 -1e-06 -1e-06 1e-06 -17.346418 -20.095219 -4.201782 21.757557 -1.638377 3.866429 1e-06 -6.338823 0.0 -1.697588 -22.591745 -6.194005 -1e-06 -5e-06 2e-06 90.634125 -76.427711 112.734383 21.869478 -34.026024 29.289051 53.985588 -0.478615 -0.499517 2.810164 7.07809 -13.265812 22.182117 -20.375898 49.933327 -16.701813 -16.74353 28.47653 -4e-06 -12.690602 -0.0 16.511726 -17.399179 2.265264 -0.10592 -1.513857 -4.275885 -5.039041 -5.612869 -2.953554 5e-06 -11.020525 -3e-06 -6.111298 -15.895332 -3.840469 1e-06 -0.0 -1e-06 -10.283372 -5.680287 -4.341838 11.028294 -11.302404 -2.372633 -1.384269 -14.238579 -6.320121 -0.625437 -26.924189 -3.8276 -4.138054 -49.429077 -3.881873 -13.708526 -7.363475 -3.720942 18.14115 -14.052739 -3.242674 7e-06 -18.78727 -1e-06 -0.429711 -8.456047 2.555507 -1e-06 0.0 -0.0 -15.923531 -20.094479 -5.473587 30.41921 -7.190826 1.735927 0.0 -8.162925 0.0 -1.861902 -22.861467 -6.16794 1e-06 -1e-06 -4e-06 -170.603943 6.334836 -6.905302 8.229828 0.001035 -0.01611 -83.282959 1.507382 0.644112 -5.301921 1.253078 2.060203 -0.999999 0.0 0.0 -22.146534 -7.868697 -18.733976 5.218997 0.155544 -0.255854 -63.049725 1.565262 -11.521318 -7.423712 0.91485 1.579376 -1.000001 -1e-06 1e-06 
0.0 0.0 0.0 0.0 -0.0 0.0 4.936159 98.159317 -1.359392 93.965378 0.263834 91.136978 3.251629 -2.552881 -0.566011 -10.736139 -1.10066 -1.868922 23.42717 -0.468218 -3.704019 35.330521 5.734624 2.946526 -2.404128 -0.999161 -1.339085 -24.499674 -1.672007 -0.851628 6e-06 0.0 0.0 -0.076581 0.023776 -0.078626 -0.141698 0.115032 -0.098439 -0.15724 -0.066336 -0.056264 -55.639553 -78.536263 78.370033 18.476027 -40.755062 26.014107 56.404823 -1.250168 0.28212 1.216246 9.461196 -13.447537 17.636623 -26.32272 52.411171 -19.46666 -14.395596 29.410385 -1e-06 -8.774821 -1e-06 16.49955 -18.471741 5.959346 -0.609776 -1.795654 -3.889327 -4.807087 -11.046808 -2.937849 5e-06 -20.976013 -1e-06 -5.01997 -25.033552 -4.03188 6e-06 0.0 0.0 -10.634533 -5.686969 -3.565589 10.573272 -17.922949 -3.113901 3e-06 -13.821204 1e-06 -0.501777 -31.181498 -4.027015 -12.100522 -60.171165 7.41101 -13.982712 -7.150198 -2.875042 13.772729 -8.401489 -3.218243 0.347734 -34.211544 0.771652 -0.963026 -17.73337 2.621017 -1e-06 -1e-06 -0.0 -17.346415 -20.095215 -4.201781 21.757557 -1.638376 3.866426 2e-06 -6.338823 -1e-06 -1.697588 -22.591745 -6.194005 0.0 -4e-06 0.0 91.32251 -76.042946 112.111847 20.431765 -33.815899 30.362366 53.652733 -0.402778 -0.242583 3.336215 6.717773 -14.206483 22.18211 -20.375893 49.933308 -16.701811 -16.74353 28.476519 -3e-06 -12.6906 2e-06 16.415585 -17.243841 2.302553 -0.105919 -1.513856 -4.275878 -5.03904 -5.61287 -2.953557 4e-06 -11.020523 -1e-06 -6.111296 -15.89533 -3.840469 -1e-06 -0.0 -1e-06 -10.283368 -5.680286 -4.341837 11.028293 -11.302403 -2.372634 -1.384269 -14.238577 -6.320118 -0.62544 -26.924183 -3.827598 -4.119913 -49.277569 -3.95019 -13.708525 -7.363475 -3.720938 18.14115 -14.052737 -3.242675 6e-06 -18.78727 -2e-06 -0.429712 -8.456043 2.555506 -1e-06 1e-06 -0.0 -15.923536 -20.094482 -5.473581 30.41921 -7.190824 1.735924 0.0 -8.162925 -2e-06 -1.861903 -22.861467 -6.167943 1e-06 -4e-06 -2e-06 -168.893784 5.983927 -6.314826 7.756413 0.007334 0.070772 -83.974495 1.360559 0.525908 -5.214866 1.272196 2.085768 -0.999999 -0.0 -0.0 -22.744246 -7.622108 -18.333014 3.887373 0.118327 -0.223829 -63.626961 2.448809 -12.105368 -7.494349 0.880508 1.538957 -1.000001 1e-06 0.0 
0.0 0.0 0.0 0.0 -0.0 0.0 4.570983 97.869133 1.208428 93.484261 0.018011 91.885788 2.945725 -2.181789 -0.647049 -10.86567 -1.063895 -2.288082 23.280924 0.214646 -3.91387 35.227722 6.278118 2.935119 -2.453773 -0.989454 -1.710124 -24.068089 -2.007139 -1.138445 8e-06 -0.0 0.0 -0.087003 0.025062 -0.081829 -0.176398 0.121404 -0.109484 -0.188051 -0.070263 -0.052612 -50.404636 -78.540421 73.05201 17.682547 -40.591919 27.137308 57.561604 -0.952548 0.27596 1.531185 9.568724 -13.648663 17.636629 -26.322742 52.411213 -19.466663 -14.395597 29.410398 -1e-06 -8.774822 -4e-06 16.519884 -18.534876 5.900104 -0.609775 -1.795654 -3.889323 -4.807087 -11.046813 -2.937852 8e-06 -20.976019 -6e-06 -5.019966 -25.033558 -4.031879 4e-06 2e-06 -0.0 -10.634535 -5.686971 -3.565588 10.573277 -17.922953 -3.113902 4e-06 -13.821211 0.0 -0.501774 -31.181507 -4.027018 -12.097042 -60.221294 7.372499 -13.982714 -7.150198 -2.875042 13.772731 -8.401493 -3.21824 0.347736 -34.211555 0.771655 -0.963028 -17.733372 2.621021 -1e-06 -1e-06 -0.0 -17.346416 -20.095217 -4.201784 21.757561 -1.638375 3.866428 2e-06 -6.338824 -0.0 -1.697588 -22.591745 -6.194008 -0.0 -4e-06 1e-06 89.817039 -75.524124 113.689865 19.049707 -33.041885 31.551939 53.429794 -0.36259 -0.129059 3.721097 6.340349 -15.267824 22.182121 -20.375898 49.933327 -16.701817 -16.74353 28.476532 -4e-06 -12.690602 -1e-06 16.374496 -17.215008 2.348087 -0.105919 -1.513856 -4.275881 -5.039041 -5.612872 -2.953557 5e-06 -11.020525 -3e-06 -6.111297 -15.895334 -3.840472 1e-06 -1e-06 -2e-06 -10.283373 -5.680288 -4.341839 11.028296 -11.302406 -2.372635 -1.384269 -14.238581 -6.32012 -0.625438 -26.924191 -3.827598 -4.048395 -49.202892 -4.069284 -13.708527 -7.363477 -3.720941 18.141153 -14.052741 -3.242677 8e-06 -18.787271 -1e-06 -0.429711 -8.456045 2.555503 -0.0 1e-06 -0.0 -15.923536 -20.094484 -5.473587 30.419222 -7.19083 1.735927 2e-06 -8.162929 -2e-06 -1.861899 -22.861471 -6.167945 -0.0 -2e-06 -0.0 -167.268356 5.062238 -6.08096 7.35905 -0.003004 0.166694 -84.402832 1.649059 0.40251 -5.413801 1.283012 2.099084 -0.999999 0.0 -0.0 -22.790251 -7.080715 -17.524345 4.228431 0.06854 -0.194753 -63.017212 2.740174 -11.908502 -7.631979 0.88816 1.54369 -1.000002 -0.0 1e-06 
0.0 0.0 0.0 0.0 -0.0 0.0 4.097929 97.678795 4.016626 92.616119 -0.357351 92.50515 2.529962 -1.528129 -0.732598 -11.059276 -1.03585 -2.621729 23.246044 1.04305 -4.148234 34.72826 6.828537 2.787634 -2.417712 -1.080157 -1.907295 -23.7705 -2.381334 -1.443131 6e-06 -0.0 -0.0 -0.095137 0.039085 -0.10494 -0.179115 0.137043 -0.135166 -0.183893 -0.058011 -0.074387 -46.905163 -78.548851 69.419327 16.605341 -40.35857 28.540022 58.860413 -0.659704 0.311142 1.970209 9.812323 -14.042411 17.636625 -26.322727 52.411194 -19.46666 -14.395594 29.410389 -1e-06 -8.774819 -1e-06 16.506577 -18.561815 5.898488 -0.609776 -1.795655 -3.889329 -4.807087 -11.046809 -2.937849 5e-06 -20.976015 -6e-06 -5.019968 -25.033552 -4.031879 5e-06 -0.0 1e-06 -10.634531 -5.686969 -3.565587 10.573272 -17.922947 -3.1139 4e-06 -13.821205 -1e-06 -0.501779 -31.181498 -4.027012 -12.098931 -60.3284 7.479952 -13.982711 -7.150196 -2.875042 13.772726 -8.401491 -3.218238 0.347733 -34.211544 0.771651 -0.96303 -17.733368 2.621019 -1e-06 -1e-06 -0.0 -17.346411 -20.095215 -4.201779 21.757551 -1.638374 3.866427 2e-06 -6.338822 -1e-06 -1.697587 -22.591742 -6.194006 -1e-06 -4e-06 -0.0 86.56385 -74.896698 116.907196 17.685625 -31.823092 32.661087 53.556526 -0.30991 -0.062143 3.890771 5.922894 -16.657751 22.182108 -20.375891 49.933319 -16.701809 -16.743525 28.476526 -3e-06 -12.690598 -1e-06 16.35837 -17.307741 2.405855 -0.105919 -1.513856 -4.275878 -5.039039 -5.612871 -2.953558 4e-06 -11.02052 -1e-06 -6.111295 -15.89533 -3.840469 0.0 -0.0 0.0 -10.283367 -5.680285 -4.341837 11.028289 -11.302403 -2.372632 -1.384268 -14.238578 -6.320121 -0.625436 -26.924187 -3.827603 -4.049307 -49.161854 -4.051568 -13.708521 -7.363474 -3.720938 18.141144 -14.052736 -3.242674 7e-06 -18.787266 -1e-06 -0.42971 -8.456041 2.555502 -2e-06 0.0 3e-06 -15.923532 -20.094482 -5.473581 30.419205 -7.190824 1.735927 1e-06 -8.162925 -3e-06 -1.8619 -22.861467 -6.167942 -0.0 -2e-06 -2e-06 -165.745621 3.629972 -6.305019 6.994269 -0.009597 0.204789 -84.308617 2.187079 0.173344 -5.868015 1.259335 2.128806 -0.999999 0.0 0.0 -22.448963 -6.115989 -16.434011 5.297806 0.030794 -0.230113 -60.610527 2.701976 -10.580817 -7.814189 0.906439 1.568566 -1.000002 0.0 0.0 
0.0 0.0 0.0 0.0 -0.0 0.0 3.553865 97.624222 6.813905 91.655624 -0.731502 92.873039 2.117548 -0.840869 -0.843167 -11.276983 -0.986174 -2.858142 23.257637 1.887588 -4.37657 34.154037 7.243936 2.656778 -2.423454 -1.084999 -2.021745 -23.632595 -2.74035 -1.636397 5e-06 0.0 -1e-06 -0.106765 0.030331 -0.086458 -0.163014 0.12397 -0.108593 -0.171447 -0.061067 -0.063597 -44.549202 -78.480682 67.015945 15.402204 -40.191902 29.992638 60.232639 -0.397364 0.291472 2.252466 10.071929 -14.207718 17.636639 -26.322735 52.411201 -19.466665 -14.395597 29.410395 -1e-06 -8.774822 -2e-06 16.551899 -18.500837 5.880333 -0.609777 -1.795655 -3.889328 -4.807086 -11.046807 -2.93785 7e-06 -20.976019 -3e-06 -5.019968 -25.033556 -4.031878 5e-06 3e-06 -0.0 -10.634536 -5.68697 -3.56559 10.573277 -17.922951 -3.113899 5e-06 -13.82121 -0.0 -0.501778 -31.181501 -4.027011 -12.004736 -60.374714 7.59468 -13.982716 -7.150197 -2.875043 13.772733 -8.401495 -3.218241 0.347738 -34.211555 0.771655 -0.963028 -17.73337 2.621022 -1e-06 -1e-06 0.0 -17.346422 -20.095217 -4.201783 21.757561 -1.638378 3.866428 2e-06 -6.338824 -1e-06 -1.697587 -22.591745 -6.194007 -1e-06 -4e-06 0.0 83.262947 -74.41069 120.171432 16.503716 -30.743572 33.512356 53.750866 -0.143019 0.03472 4.22476 5.74389 -17.850809 22.182116 -20.375895 49.933327 -16.701811 -16.743528 28.476528 -2e-06 -12.6906 0.0 16.330387 -17.351107 2.439154 -0.10592 -1.513856 -4.275882 -5.039041 -5.612872 -2.953556 3e-06 -11.020524 -1e-06 -6.111298 -15.895334 -3.840472 0.0 0.0 -1e-06 -10.283371 -5.680289 -4.341837 11.028293 -11.302404 -2.372632 -1.38427 -14.238581 -6.320119 -0.625438 -26.924191 -3.827604 -3.992932 -49.23431 -4.044857 -13.708526 -7.363477 -3.72094 18.141151 -14.05274 -3.242672 5e-06 -18.78727 0.0 -0.429713 -8.456045 2.555503 -2e-06 2e-06 0.0 -15.923539 -20.094486 -5.473585 30.419218 -7.190823 1.735926 1e-06 -8.162925 -0.0 -1.861904 -22.861473 -6.167942 -0.0 -1e-06 -3e-06 -164.734039 2.089225 -7.073459 7.571212 -0.033558 0.287528 -83.553246 2.795168 -0.325112 -6.863217 1.327562 2.137641 -0.999999 -0.0 0.0 -22.062731 -5.011422 -15.497392 6.504814 0.020356 -0.314079 -57.827244 2.846447 -9.009694 -7.729664 0.837994 1.575862 -1.000001 -0.0 -0.0 
